<svg height="3710" width="720" xmlns="http://www.w3.org/2000/svg">
<rect height="3710" fill="#555" width="720"></rect>
<text fill="#7f7" font-family="Courier New" font-size="12" xml:space="preserve">
<tspan x="10" y="26">37 megabytes installed</tspan>
<tspan x="10" y="42"></tspan>
<tspan x="10" y="58">node_modules</tspan>
<tspan x="10" y="74">└─┬ gulp.spritesmith-multi@3.1.0 </tspan>
<tspan x="10" y="90">  ├─┬ gulp.spritesmith@6.4.0 </tspan>
<tspan x="10" y="106">  │ ├─┬ async@2.1.5 </tspan>
<tspan x="10" y="122">  │ │ └── lodash@4.17.4 </tspan>
<tspan x="10" y="138">  │ ├─┬ gulp-util@3.0.8 </tspan>
<tspan x="10" y="154">  │ │ ├── array-differ@1.0.0 </tspan>
<tspan x="10" y="170">  │ │ ├── array-uniq@1.0.3 </tspan>
<tspan x="10" y="186">  │ │ ├── beeper@1.1.1 </tspan>
<tspan x="10" y="202">  │ │ ├─┬ chalk@1.1.3 </tspan>
<tspan x="10" y="218">  │ │ │ ├── ansi-styles@2.2.1 </tspan>
<tspan x="10" y="234">  │ │ │ ├── escape-string-regexp@1.0.5 </tspan>
<tspan x="10" y="250">  │ │ │ ├─┬ has-ansi@2.0.0 </tspan>
<tspan x="10" y="266">  │ │ │ │ └── ansi-regex@2.1.1 </tspan>
<tspan x="10" y="282">  │ │ │ ├── strip-ansi@3.0.1 </tspan>
<tspan x="10" y="298">  │ │ │ └── supports-color@2.0.0 </tspan>
<tspan x="10" y="314">  │ │ ├── dateformat@2.0.0 </tspan>
<tspan x="10" y="330">  │ │ ├─┬ fancy-log@1.3.0 </tspan>
<tspan x="10" y="346">  │ │ │ └── time-stamp@1.0.1 </tspan>
<tspan x="10" y="362">  │ │ ├─┬ gulplog@1.0.0 </tspan>
<tspan x="10" y="378">  │ │ │ └── glogg@1.0.0 </tspan>
<tspan x="10" y="394">  │ │ ├─┬ has-gulplog@0.1.0 </tspan>
<tspan x="10" y="410">  │ │ │ └── sparkles@1.0.0 </tspan>
<tspan x="10" y="426">  │ │ ├── lodash._reescape@3.0.0 </tspan>
<tspan x="10" y="442">  │ │ ├── lodash._reevaluate@3.0.0 </tspan>
<tspan x="10" y="458">  │ │ ├── lodash._reinterpolate@3.0.0 </tspan>
<tspan x="10" y="474">  │ │ ├─┬ lodash.template@3.6.2 </tspan>
<tspan x="10" y="490">  │ │ │ ├── lodash._basecopy@3.0.1 </tspan>
<tspan x="10" y="506">  │ │ │ ├── lodash._basetostring@3.0.1 </tspan>
<tspan x="10" y="522">  │ │ │ ├── lodash._basevalues@3.0.0 </tspan>
<tspan x="10" y="538">  │ │ │ ├── lodash._isiterateecall@3.0.9 </tspan>
<tspan x="10" y="554">  │ │ │ ├─┬ lodash.escape@3.2.0 </tspan>
<tspan x="10" y="570">  │ │ │ │ └── lodash._root@3.0.1 </tspan>
<tspan x="10" y="586">  │ │ │ ├─┬ lodash.keys@3.1.2 </tspan>
<tspan x="10" y="602">  │ │ │ │ ├── lodash._getnative@3.9.1 </tspan>
<tspan x="10" y="618">  │ │ │ │ ├── lodash.isarguments@3.1.0 </tspan>
<tspan x="10" y="634">  │ │ │ │ └── lodash.isarray@3.0.4 </tspan>
<tspan x="10" y="650">  │ │ │ ├── lodash.restparam@3.6.1 </tspan>
<tspan x="10" y="666">  │ │ │ └── lodash.templatesettings@3.1.1 </tspan>
<tspan x="10" y="682">  │ │ ├── minimist@1.2.0 </tspan>
<tspan x="10" y="698">  │ │ ├─┬ multipipe@0.1.2 </tspan>
<tspan x="10" y="714">  │ │ │ └─┬ duplexer2@0.0.2 </tspan>
<tspan x="10" y="730">  │ │ │   └─┬ readable-stream@1.1.14 </tspan>
<tspan x="10" y="746">  │ │ │     └── isarray@0.0.1 </tspan>
<tspan x="10" y="762">  │ │ ├── object-assign@3.0.0 </tspan>
<tspan x="10" y="778">  │ │ ├── replace-ext@0.0.1 </tspan>
<tspan x="10" y="794">  │ │ └─┬ vinyl@0.5.3 </tspan>
<tspan x="10" y="810">  │ │   ├── clone@1.0.2 </tspan>
<tspan x="10" y="826">  │ │   └── clone-stats@0.0.1 </tspan>
<tspan x="10" y="842">  │ ├─┬ minimatch@3.0.3 </tspan>
<tspan x="10" y="858">  │ │ └─┬ brace-expansion@1.1.7 </tspan>
<tspan x="10" y="874">  │ │   ├── balanced-match@0.4.2 </tspan>
<tspan x="10" y="890">  │ │   └── concat-map@0.0.1 </tspan>
<tspan x="10" y="906">  │ ├─┬ spritesheet-templates@10.2.1 </tspan>
<tspan x="10" y="922">  │ │ ├── handlebars-layouts@1.1.0 </tspan>
<tspan x="10" y="938">  │ │ ├── json-content-demux@0.1.3 </tspan>
<tspan x="10" y="954">  │ │ ├── underscore@1.4.4 </tspan>
<tspan x="10" y="970">  │ │ └── underscore.string@3.0.3 </tspan>
<tspan x="10" y="986">  │ ├─┬ spritesmith@3.1.1 </tspan>
<tspan x="10" y="1002">  │ │ ├─┬ concat-stream@1.5.2 </tspan>
<tspan x="10" y="1018">  │ │ │ ├─┬ readable-stream@2.0.6 </tspan>
<tspan x="10" y="1034">  │ │ │ │ ├── isarray@1.0.0 </tspan>
<tspan x="10" y="1050">  │ │ │ │ └── string_decoder@0.10.31 </tspan>
<tspan x="10" y="1066">  │ │ │ └── typedarray@0.0.6 </tspan>
<tspan x="10" y="1082">  │ │ ├─┬ layout@2.2.0 </tspan>
<tspan x="10" y="1098">  │ │ │ └── bin-pack@1.0.2 </tspan>
<tspan x="10" y="1114">  │ │ ├─┬ pixelsmith@2.1.1 </tspan>
<tspan x="10" y="1130">  │ │ │ ├── async@0.9.2 </tspan>
<tspan x="10" y="1146">  │ │ │ ├─┬ get-pixels@3.3.0 </tspan>
<tspan x="10" y="1162">  │ │ │ │ ├── data-uri-to-buffer@0.0.3 </tspan>
<tspan x="10" y="1178">  │ │ │ │ ├── jpeg-js@0.1.2 </tspan>
<tspan x="10" y="1194">  │ │ │ │ ├─┬ ndarray-pack@1.2.1 </tspan>
<tspan x="10" y="1210">  │ │ │ │ │ └─┬ cwise-compiler@1.1.2 </tspan>
<tspan x="10" y="1226">  │ │ │ │ │   └── uniq@1.0.1 </tspan>
<tspan x="10" y="1242">  │ │ │ │ ├── node-bitmap@0.0.1 </tspan>
<tspan x="10" y="1258">  │ │ │ │ ├── omggif@1.0.8 </tspan>
<tspan x="10" y="1274">  │ │ │ │ ├── parse-data-uri@0.2.0 </tspan>
<tspan x="10" y="1290">  │ │ │ │ ├── pngjs@2.3.1 </tspan>
<tspan x="10" y="1306">  │ │ │ │ ├─┬ request@2.81.0 </tspan>
<tspan x="10" y="1322">  │ │ │ │ │ ├── aws-sign2@0.6.0 </tspan>
<tspan x="10" y="1338">  │ │ │ │ │ ├── aws4@1.6.0 </tspan>
<tspan x="10" y="1354">  │ │ │ │ │ ├── caseless@0.12.0 </tspan>
<tspan x="10" y="1370">  │ │ │ │ │ ├─┬ combined-stream@1.0.5 </tspan>
<tspan x="10" y="1386">  │ │ │ │ │ │ └── delayed-stream@1.0.0 </tspan>
<tspan x="10" y="1402">  │ │ │ │ │ ├── extend@3.0.0 </tspan>
<tspan x="10" y="1418">  │ │ │ │ │ ├── forever-agent@0.6.1 </tspan>
<tspan x="10" y="1434">  │ │ │ │ │ ├─┬ form-data@2.1.4 </tspan>
<tspan x="10" y="1450">  │ │ │ │ │ │ └── asynckit@0.4.0 </tspan>
<tspan x="10" y="1466">  │ │ │ │ │ ├─┬ har-validator@4.2.1 </tspan>
<tspan x="10" y="1482">  │ │ │ │ │ │ ├─┬ ajv@4.11.7 </tspan>
<tspan x="10" y="1498">  │ │ │ │ │ │ │ ├── co@4.6.0 </tspan>
<tspan x="10" y="1514">  │ │ │ │ │ │ │ └─┬ json-stable-stringify@1.0.1 </tspan>
<tspan x="10" y="1530">  │ │ │ │ │ │ │   └── jsonify@0.0.0 </tspan>
<tspan x="10" y="1546">  │ │ │ │ │ │ └── har-schema@1.0.5 </tspan>
<tspan x="10" y="1562">  │ │ │ │ │ ├─┬ hawk@3.1.3 </tspan>
<tspan x="10" y="1578">  │ │ │ │ │ │ ├── boom@2.10.1 </tspan>
<tspan x="10" y="1594">  │ │ │ │ │ │ ├── cryptiles@2.0.5 </tspan>
<tspan x="10" y="1610">  │ │ │ │ │ │ ├── hoek@2.16.3 </tspan>
<tspan x="10" y="1626">  │ │ │ │ │ │ └── sntp@1.0.9 </tspan>
<tspan x="10" y="1642">  │ │ │ │ │ ├─┬ http-signature@1.1.1 </tspan>
<tspan x="10" y="1658">  │ │ │ │ │ │ ├── assert-plus@0.2.0 </tspan>
<tspan x="10" y="1674">  │ │ │ │ │ │ ├─┬ jsprim@1.4.0 </tspan>
<tspan x="10" y="1690">  │ │ │ │ │ │ │ ├── assert-plus@1.0.0 </tspan>
<tspan x="10" y="1706">  │ │ │ │ │ │ │ ├── extsprintf@1.0.2 </tspan>
<tspan x="10" y="1722">  │ │ │ │ │ │ │ ├── json-schema@0.2.3 </tspan>
<tspan x="10" y="1738">  │ │ │ │ │ │ │ └── verror@1.3.6 </tspan>
<tspan x="10" y="1754">  │ │ │ │ │ │ └─┬ sshpk@1.13.0 </tspan>
<tspan x="10" y="1770">  │ │ │ │ │ │   ├── asn1@0.2.3 </tspan>
<tspan x="10" y="1786">  │ │ │ │ │ │   ├── assert-plus@1.0.0 </tspan>
<tspan x="10" y="1802">  │ │ │ │ │ │   ├── bcrypt-pbkdf@1.0.1 </tspan>
<tspan x="10" y="1818">  │ │ │ │ │ │   ├─┬ dashdash@1.14.1 </tspan>
<tspan x="10" y="1834">  │ │ │ │ │ │   │ └── assert-plus@1.0.0 </tspan>
<tspan x="10" y="1850">  │ │ │ │ │ │   ├── ecc-jsbn@0.1.1 </tspan>
<tspan x="10" y="1866">  │ │ │ │ │ │   ├─┬ getpass@0.1.6 </tspan>
<tspan x="10" y="1882">  │ │ │ │ │ │   │ └── assert-plus@1.0.0 </tspan>
<tspan x="10" y="1898">  │ │ │ │ │ │   ├── jodid25519@1.0.2 </tspan>
<tspan x="10" y="1914">  │ │ │ │ │ │   ├── jsbn@0.1.1 </tspan>
<tspan x="10" y="1930">  │ │ │ │ │ │   └── tweetnacl@0.14.5 </tspan>
<tspan x="10" y="1946">  │ │ │ │ │ ├── is-typedarray@1.0.0 </tspan>
<tspan x="10" y="1962">  │ │ │ │ │ ├── isstream@0.1.2 </tspan>
<tspan x="10" y="1978">  │ │ │ │ │ ├── json-stringify-safe@5.0.1 </tspan>
<tspan x="10" y="1994">  │ │ │ │ │ ├── oauth-sign@0.8.2 </tspan>
<tspan x="10" y="2010">  │ │ │ │ │ ├── performance-now@0.2.0 </tspan>
<tspan x="10" y="2026">  │ │ │ │ │ ├── qs@6.4.0 </tspan>
<tspan x="10" y="2042">  │ │ │ │ │ ├── safe-buffer@5.0.1 </tspan>
<tspan x="10" y="2058">  │ │ │ │ │ ├── stringstream@0.0.5 </tspan>
<tspan x="10" y="2074">  │ │ │ │ │ ├─┬ tough-cookie@2.3.2 </tspan>
<tspan x="10" y="2090">  │ │ │ │ │ │ └── punycode@1.4.1 </tspan>
<tspan x="10" y="2106">  │ │ │ │ │ ├── tunnel-agent@0.6.0 </tspan>
<tspan x="10" y="2122">  │ │ │ │ │ └── uuid@3.0.1 </tspan>
<tspan x="10" y="2138">  │ │ │ │ └── through@2.3.8 </tspan>
<tspan x="10" y="2154">  │ │ │ ├─┬ mime-types@2.1.15 </tspan>
<tspan x="10" y="2170">  │ │ │ │ └── mime-db@1.27.0 </tspan>
<tspan x="10" y="2186">  │ │ │ ├─┬ ndarray@1.0.18 </tspan>
<tspan x="10" y="2202">  │ │ │ │ ├── iota-array@1.0.0 </tspan>
<tspan x="10" y="2218">  │ │ │ │ └── is-buffer@1.1.5 </tspan>
<tspan x="10" y="2234">  │ │ │ ├─┬ ndarray-fill@1.0.2 </tspan>
<tspan x="10" y="2250">  │ │ │ │ └─┬ cwise@1.0.10 </tspan>
<tspan x="10" y="2266">  │ │ │ │   ├─┬ cwise-parser@1.0.3 </tspan>
<tspan x="10" y="2282">  │ │ │ │   │ └── esprima@1.2.5 </tspan>
<tspan x="10" y="2298">  │ │ │ │   └─┬ static-module@1.3.1 </tspan>
<tspan x="10" y="2314">  │ │ │ │     ├─┬ concat-stream@1.4.10 </tspan>
<tspan x="10" y="2330">  │ │ │ │     │ └── readable-stream@1.1.14 </tspan>
<tspan x="10" y="2346">  │ │ │ │     ├─┬ escodegen@1.3.3 </tspan>
<tspan x="10" y="2362">  │ │ │ │     │ ├── esprima@1.1.1 </tspan>
<tspan x="10" y="2378">  │ │ │ │     │ ├── estraverse@1.5.1 </tspan>
<tspan x="10" y="2394">  │ │ │ │     │ ├── esutils@1.0.0 </tspan>
<tspan x="10" y="2410">  │ │ │ │     │ └── source-map@0.1.43 </tspan>
<tspan x="10" y="2426">  │ │ │ │     ├─┬ falafel@1.2.0 </tspan>
<tspan x="10" y="2442">  │ │ │ │     │ ├── acorn@1.2.2 </tspan>
<tspan x="10" y="2458">  │ │ │ │     │ ├── foreach@2.0.5 </tspan>
<tspan x="10" y="2474">  │ │ │ │     │ └── object-keys@1.0.11 </tspan>
<tspan x="10" y="2490">  │ │ │ │     ├─┬ has@1.0.1 </tspan>
<tspan x="10" y="2506">  │ │ │ │     │ └── function-bind@1.1.0 </tspan>
<tspan x="10" y="2522">  │ │ │ │     ├── object-inspect@0.4.0 </tspan>
<tspan x="10" y="2538">  │ │ │ │     ├─┬ quote-stream@0.0.0 </tspan>
<tspan x="10" y="2554">  │ │ │ │     │ ├── minimist@0.0.8 </tspan>
<tspan x="10" y="2570">  │ │ │ │     │ └─┬ through2@0.4.2 </tspan>
<tspan x="10" y="2586">  │ │ │ │     │   ├── readable-stream@1.0.34 </tspan>
<tspan x="10" y="2602">  │ │ │ │     │   └─┬ xtend@2.1.2 </tspan>
<tspan x="10" y="2618">  │ │ │ │     │     └── object-keys@0.4.0 </tspan>
<tspan x="10" y="2634">  │ │ │ │     ├── readable-stream@1.0.34 </tspan>
<tspan x="10" y="2650">  │ │ │ │     ├── shallow-copy@0.0.1 </tspan>
<tspan x="10" y="2666">  │ │ │ │     ├─┬ static-eval@0.2.4 </tspan>
<tspan x="10" y="2682">  │ │ │ │     │ └─┬ escodegen@0.0.28 </tspan>
<tspan x="10" y="2698">  │ │ │ │     │   ├── esprima@1.0.4 </tspan>
<tspan x="10" y="2714">  │ │ │ │     │   └── estraverse@1.3.2 </tspan>
<tspan x="10" y="2730">  │ │ │ │     └─┬ through2@0.4.2 </tspan>
<tspan x="10" y="2746">  │ │ │ │       └─┬ xtend@2.1.2 </tspan>
<tspan x="10" y="2762">  │ │ │ │         └── object-keys@0.4.0 </tspan>
<tspan x="10" y="2778">  │ │ │ ├── obj-extend@0.1.0 </tspan>
<tspan x="10" y="2794">  │ │ │ ├─┬ save-pixels@2.3.4 </tspan>
<tspan x="10" y="2810">  │ │ │ │ ├─┬ contentstream@1.0.0 </tspan>
<tspan x="10" y="2826">  │ │ │ │ │ └── readable-stream@1.0.34 </tspan>
<tspan x="10" y="2842">  │ │ │ │ ├── gif-encoder@0.4.3 </tspan>
<tspan x="10" y="2858">  │ │ │ │ ├── jpeg-js@0.0.4 </tspan>
<tspan x="10" y="2874">  │ │ │ │ ├── ndarray-ops@1.2.2 </tspan>
<tspan x="10" y="2890">  │ │ │ │ └── pngjs-nozlib@1.0.0 </tspan>
<tspan x="10" y="2906">  │ │ │ └─┬ vinyl-file@1.3.0 </tspan>
<tspan x="10" y="2922">  │ │ │   ├── graceful-fs@4.1.11 </tspan>
<tspan x="10" y="2938">  │ │ │   ├─┬ strip-bom@2.0.0 </tspan>
<tspan x="10" y="2954">  │ │ │   │ └── is-utf8@0.2.1 </tspan>
<tspan x="10" y="2970">  │ │ │   ├─┬ strip-bom-stream@1.0.0 </tspan>
<tspan x="10" y="2986">  │ │ │   │ └── first-chunk-stream@1.0.0 </tspan>
<tspan x="10" y="3002">  │ │ │   └── vinyl@1.2.0 </tspan>
<tspan x="10" y="3018">  │ │ └── semver@5.0.3 </tspan>
<tspan x="10" y="3034">  │ ├── underscore@1.8.3 </tspan>
<tspan x="10" y="3050">  │ └─┬ url2@1.0.4 </tspan>
<tspan x="10" y="3066">  │   └─┬ url@0.10.2 </tspan>
<tspan x="10" y="3082">  │     └── punycode@1.3.2 </tspan>
<tspan x="10" y="3098">  ├─┬ handlebars@4.0.6 </tspan>
<tspan x="10" y="3114">  │ ├── async@1.5.2 </tspan>
<tspan x="10" y="3130">  │ ├─┬ optimist@0.6.1 </tspan>
<tspan x="10" y="3146">  │ │ ├── minimist@0.0.10 </tspan>
<tspan x="10" y="3162">  │ │ └── wordwrap@0.0.3 </tspan>
<tspan x="10" y="3178">  │ ├─┬ source-map@0.4.4 </tspan>
<tspan x="10" y="3194">  │ │ └── amdefine@1.0.1 </tspan>
<tspan x="10" y="3210">  │ └─┬ uglify-js@2.8.22 </tspan>
<tspan x="10" y="3226">  │   ├── source-map@0.5.6 </tspan>
<tspan x="10" y="3242">  │   ├── uglify-to-browserify@1.0.2 </tspan>
<tspan x="10" y="3258">  │   └─┬ yargs@3.10.0 </tspan>
<tspan x="10" y="3274">  │     ├── camelcase@1.2.1 </tspan>
<tspan x="10" y="3290">  │     ├─┬ cliui@2.1.0 </tspan>
<tspan x="10" y="3306">  │     │ ├─┬ center-align@0.1.3 </tspan>
<tspan x="10" y="3322">  │     │ │ ├─┬ align-text@0.1.4 </tspan>
<tspan x="10" y="3338">  │     │ │ │ ├── kind-of@3.1.0 </tspan>
<tspan x="10" y="3354">  │     │ │ │ ├── longest@1.0.1 </tspan>
<tspan x="10" y="3370">  │     │ │ │ └── repeat-string@1.6.1 </tspan>
<tspan x="10" y="3386">  │     │ │ └── lazy-cache@1.0.4 </tspan>
<tspan x="10" y="3402">  │     │ ├── right-align@0.1.3 </tspan>
<tspan x="10" y="3418">  │     │ └── wordwrap@0.0.2 </tspan>
<tspan x="10" y="3434">  │     ├── decamelize@1.2.0 </tspan>
<tspan x="10" y="3450">  │     └── window-size@0.1.0 </tspan>
<tspan x="10" y="3466">  ├─┬ merge-stream@1.0.1 </tspan>
<tspan x="10" y="3482">  │ └─┬ readable-stream@2.2.9 </tspan>
<tspan x="10" y="3498">  │   ├── buffer-shims@1.0.0 </tspan>
<tspan x="10" y="3514">  │   ├── core-util-is@1.0.2 </tspan>
<tspan x="10" y="3530">  │   ├── inherits@2.0.3 </tspan>
<tspan x="10" y="3546">  │   ├── isarray@1.0.0 </tspan>
<tspan x="10" y="3562">  │   ├── process-nextick-args@1.0.7 </tspan>
<tspan x="10" y="3578">  │   ├── string_decoder@1.0.0 </tspan>
<tspan x="10" y="3594">  │   └── util-deprecate@1.0.2 </tspan>
<tspan x="10" y="3610">  ├── mixy@1.0.0 </tspan>
<tspan x="10" y="3626">  └─┬ through2@2.0.3 </tspan>
<tspan x="10" y="3642">    ├─┬ readable-stream@2.2.9 </tspan>
<tspan x="10" y="3658">    │ ├── isarray@1.0.0 </tspan>
<tspan x="10" y="3674">    │ └── string_decoder@1.0.0 </tspan>
<tspan x="10" y="3690">    └── xtend@4.0.1</tspan>
</text>
</svg>
